<svg t="1689316124243" class="icon" viewBox="0 0 1024 1024" version="1.1" xmlns="http://www.w3.org/2000/svg" p-id="2639" xmlns:xlink="http://www.w3.org/1999/xlink" width="32" height="32"><path d="M633.386667 723.2H390.826667v91.946667H188.586667V896h645.333333l1.706667-80.853333h-202.24V723.2z m139.946666-69.76h-59.093333v-362.666667h59.093333z m-154.453333 0h-59.093333V209.066667H618.666667z m-154.453333 0H405.333333V370.773333h59.306667z m-154.453334 0h-59.306666v-161.706667h59.093333zM917.333333 693.76V184.746667a53.973333 53.973333 0 0 0-14.506666-39.04A54.613333 54.613333 0 0 0 863.36 128H160.64A55.04 55.04 0 0 0 106.666667 184.746667v509.013333A33.92 33.92 0 0 0 116.48 725.333333a33.28 33.28 0 0 0 31.573333 8.96h727.893334a33.706667 33.706667 0 0 0 41.386666-40.533333z" p-id="2640" fill="#36ab60"></path></svg>